PathFileType	4	(X/Y/Z)	pose_F01_0-96.trc
DataRate	CameraRate	NumFrames	NumMarkers	Units	OrigDataRate	OrigDataStartFrame	OrigNumFrames
30	30	10	21	m	30	48	96
Frame#	Time	CHip			RHip			RKnee			RAnkle			RBigToe			RSmallToe			RHeel			LHip			LKnee			LAnkle			LBigToe			LSmallToe			LHeel			Neck			Nose			RShoulder			RElbow			RWrist			LShoulder			LElbow			LWrist			
		X1	Y1	Z1	X2	Y2	Z2	X3	Y3	Z3	X4	Y4	Z4	X5	Y5	Z5	X6	Y6	Z6	X7	Y7	Z7	X8	Y8	Z8	X9	Y9	Z9	X10	Y10	Z10	X11	Y11	Z11	X12	Y12	Z12	X13	Y13	Z13	X14	Y14	Z14	X15	Y15	Z15	X16	Y16	Z16	X17	Y17	Z17	X18	Y18	Z18	X19	Y19	Z19	X20	Y20	Z20	X21	Y21	Z21	
48	1.6	-0.228564157465002	1.8400205168732613	-0.7888846324508355	-0.24579927955234132	1.8380088141176911	-0.723643955676884																-0.21356378997077777	1.8423170204038333	-0.8544703992458114	-0.22019718614695027	1.7118971829330867	-0.7565572027077906													-0.22838568995545275	1.9996135908948613	-0.8169217212329326	-0.20635803392413338	2.043450742775625	-0.8001628166062127	-0.2500338706233277	1.9995481979979046	-0.729672457756102	-1.3732648207897806	1.8341966638667495	0.4990558596475624	-0.22056164610011575	1.985565010946087	-0.7254920373306304	-0.2050208466326606	2.0007551669896277	-0.9065046348036513	-0.1976831014804285	1.9273658098693522	-0.9598681441313879	-0.8179977913295621	1.752266475324668	-0.3946367698929862
49	1.6333333333333333	-0.2276417810908823	1.838900249061953	-0.7938979088125736	-0.24377761616795496	1.833144036509556	-0.7256681533309611																-0.21247883483457947	1.8395962921668645	-0.8592688741468717	-0.22019718614695027	1.7118971829330867	-0.7565572027077906													-0.22605174227021538	1.998391583680206	-0.8188862253679469	-0.20343793633780483	2.0437271531130476	-0.8105919691701367	-0.24896136130534782	1.9987913087496547	-0.7264665330176604	-1.3691796402898684	1.8337375851909483	0.4837098108022541	-0.22198829195145278	1.9901243396177757	-0.7318516471053479	-0.20341744184222477	2.0012952658647674	-0.9116409186779506	-0.19609028976017207	1.9283377688883392	-0.9652098140229515	-0.8230230305032641	1.7556939516556551	-0.3858780590773434
50	1.6666666666666667	-0.22462981103702845	1.8458232892833428	-0.7971344420560647	-0.2392924643310463	1.84228299822917	-0.7345249393585507																-0.21161907991940038	1.8454589139295359	-0.8602027075840296	-0.22019718614695027	1.7118971829330867	-0.7565572027077906													-0.2252890941357821	1.9998863095627692	-0.8274316204161721	-0.20040584548151835	2.045217134321346	-0.820959612019962	-0.24648859622037833	1.9997398467493772	-0.7373436046785338	-1.3608414515072826	1.8306283319650516	0.4635996105363774	-0.23372053572185605	1.9896431056927044	-0.7307054297088214	-0.20001399984326373	2.00097221320526	-0.9217647066727148	-0.19704839532118484	1.9305650040877733	-0.969769141401807	-0.8015334644669618	1.7657963434526633	-0.4023371515757842
51	1.7	-0.22130480005414366	1.8503195179672907	-0.8083220244583207	-0.23339287416819793	1.8462032493635274	-0.7446946741947295																-0.9725440743989461	1.7524843013581348	-0.14569080269066684	-0.22019718614695027	1.7118971829330867	-0.7565572027077906													-0.22057653667642863	1.9999999363396663	-0.8317614691275376	-0.1996966151986227	2.0471490142022586	-0.8294741073729667	-0.2440449626378435	1.9997554961356416	-0.7392222702371347	-1.3586506737368456	1.828348991363247	0.4548872137092707	-0.23798797040928293	1.9820634373709243	-0.7135018383868618	-0.19894109325211012	2.00352271686661	-0.9302306456062975	-0.19800650088219765	1.9327922392872072	-0.9743284687806626	-0.8246478676390746	1.7781253856120058	-0.3622471884877865
52	1.7333333333333334	-0.21842413442590028	1.8479279485105806	-0.8188369942880793	-0.23330765692612812	1.8454185663266252	-0.7545977713070482																-0.9481312064636104	1.7503082072017837	-0.1848399636721856	-0.22019718614695027	1.7118971829330867	-0.7565572027077906													-0.21754762345018408	2.0016361056911802	-0.8424914254525978	-0.19875491715781723	2.050452197430383	-0.8380047796733147	-0.2403420724047693	1.9975743361032885	-0.7465217944637678	-1.338945105677812	1.8289980261182612	0.40774031890432977	-0.22951577534485817	1.972862905155504	-0.6840327320117674	-0.19334637249358766	2.0042929888437957	-0.9431773975708808	-0.19320409440393074	1.9302657908538545	-0.9898473246238128	-0.8316323899077102	1.8036650961833072	-0.344477489987988
53	1.7666666666666666	-0.2155434687976569	1.8455363790538708	-0.8293519641178378	-0.2332224396840583	1.8446338832897227	-0.764500868419367																-0.9372004606806473	1.7504720840652106	-0.2065961042799231	-0.22019718614695027	1.7118971829330867	-0.7565572027077906													-0.21523576328431723	2.002465271805816	-0.8559812381210719	-0.1957371552087739	2.0525884401672934	-0.8487063011337704	-0.23852005955824362	1.9986378446495565	-0.7601467530477916	-1.2984284749860069	1.8262272752051076	0.3320440854044743	-0.2617586551678243	1.9213240011619819	-0.6440570081143935	-0.1891731962095649	2.0052819240976425	-0.9506875655769765	-0.8506097044330722	1.8188269956722083	-0.3765536305444641	-0.14156570951105513	1.9799553277825515	-1.0231596279639745
54	1.8	-0.21395939261629504	1.8493466870868707	-0.8350136766978331	-0.23160746850784003	1.8458066752954074	-0.7702979344141617																-0.9311904383037125	1.7520764154308182	-0.21776263929108522	-0.22019718614695027	1.7118971829330867	-0.7565572027077906													-0.21442608471582514	2.0014052793034924	-0.8640532255053912	-0.19043617928005407	2.052624894207156	-0.8618404094867682	-0.23801476512596467	2.000137861966097	-0.7686448256999736	-1.3005082780394304	1.8256917315455583	0.33412398182674663	-0.249364495154712	1.9047333012240466	-0.6289070459758026	-0.18937378650868056	2.0065308030954974	-0.9643969946735824	-0.8577679871169377	1.8193830711049659	-0.3611035539444929	-0.16301851412353827	1.9579152453196076	-0.9599100675991294
55	1.8333333333333333	-0.2160998410891409	1.844493263689667	-0.8404118315824493	-0.2331216443650374	1.8419634273387602	-0.7729231100834066																-0.9293559809119409	1.7487788461631135	-0.21952591170750643	-0.22019718614695027	1.7118971829330867	-0.7565572027077906													-0.2129046729693248	2.0030382229612234	-0.8693416057028032	-0.18892516076015684	2.051694070574272	-0.8672623185013199	-0.2396678488921884	2.0001371372688452	-0.7747499808356964	-1.2809815005682061	1.8231968730667227	0.29804143881677714	-0.24604023277366394	1.9004901569704107	-0.6502403000593879	-0.18556003868294174	2.007773576038388	-0.9610298427409791	-0.9226107693504149	1.8181458498830962	-0.25116135568873665	-0.18447131873602138	1.935875162856664	-0.8966605072342845
56	1.8666666666666667	-0.21687530289404752	1.8464779909966682	-0.843679324211186	-0.2339398634589105	1.8441344810887714	-0.776161435828865																-0.9254095686197022	1.753656944200825	-0.2286368168676672	-0.22019718614695027	1.7118971829330867	-0.7565572027077906													-0.2152913494873667	2.0038298079768353	-0.8676189085054681	-0.19196222983516156	2.0510229052401376	-0.86765312406434	-0.24061552171137074	2.00129769610308	-0.7782746209049805	-1.2831047520064731	1.8327036665126812	0.29804288189328726	-0.799590075239525	1.8772840447564743	-0.09567604292327991	-0.18808217718375606	2.008123411106808	-0.9590948865524924	-0.1811072810415691	1.9290193180262107	-0.9539534830199908	-0.20592412334850452	1.91383508039372	-0.8334109468694394
57	1.9	-0.21706039108579392	1.8467140753663331	-0.8444794290753097	-0.23373914595001072	1.8444737320052975	-0.7768750637167178																-0.9328224022782299	1.7491071583370825	-0.21678555355069093	-0.22019718614695027	1.7118971829330867	-0.7565572027077906													-0.21766983836180742	2.003143584357405	-0.8651777078096418	-0.19666153729554384	2.0506807325119336	-0.8630323257990908	-0.2451778840256977	2.000444271734943	-0.7736966994434407	-1.2513660382308862	1.8318089975399783	0.25516268473748616	-1.353139917705386	1.8540779325425378	0.45888821421282816	-0.1874544458087459	2.0067427217404608	-0.9561026447334141	-0.9287172559582708	1.8246844533248077	-0.241274660169449	-1.0753742750099837	1.8017084284178813	0.024412328736992114
